Coordinates
version=1
nRows=4
nColumns=63
inDegrees=yes

Units are S.I. units (second, meters, Newtons, ...)
If the header above contains a line with 'inDegrees', this indicates whether rotational values are in degrees (yes) or radians (no).

endheader
time	pelvis_tilt	pelvis_list	pelvis_rotation	pelvis_tx	pelvis_ty	pelvis_tz	hip_flexion_r	hip_adduction_r	hip_rotation_r	knee_angle_r	knee_angle_r_beta	ankle_angle_r	subtalar_angle_r	mtp_angle_r	hip_flexion_l	hip_adduction_l	hip_rotation_l	knee_angle_l	knee_angle_l_beta	ankle_angle_l	subtalar_angle_l	mtp_angle_l	L5_S1_Flex_Ext	L5_S1_Lat_Bending	L5_S1_axial_rotation	L4_L5_Flex_Ext	L4_L5_Lat_Bending	L4_L5_axial_rotation	L3_L4_Flex_Ext	L3_L4_Lat_Bending	L3_L4_axial_rotation	L2_L3_Flex_Ext	L2_L3_Lat_Bending	L2_L3_axial_rotation	L1_L2_Flex_Ext	L1_L2_Lat_Bending	L1_L2_axial_rotation	L1_T12_Flex_Ext	L1_T12_Lat_Bending	L1_T12_axial_rotation	Abs_r3	Abs_r2	Abs_r1	Abs_t1	Abs_t2	neck_flexion	neck_bending	neck_rotation	arm_flex_r	arm_add_r	arm_rot_r	elbow_flex_r	pro_sup_r	wrist_flex_r	wrist_dev_r	arm_flex_l	arm_add_l	arm_rot_l	elbow_flex_l	pro_sup_l	wrist_flex_l	wrist_dev_l
      3.67796610	      4.20789950	     11.84907830	     94.20558709	      0.11736201	      0.93413820	      0.74403925	    -10.43798711	      2.38765072	    -19.03360965	     15.76994845	      0.27523752	     25.35502488	     16.80563494	      0.00000000	     -9.49950545	     -4.81450159	      3.59000368	     18.10737911	      0.31603338	     22.27211967	    -12.39540305	      0.00000000	     -1.20636383	      1.84599563	     12.30969982	     -2.24033826	      2.45517418	     13.07905605	     -1.98193513	      4.48835376	     13.07905605	     -1.37875322	      4.48835376	     10.77098734	     -1.12022945	      3.76435428	     10.00163110	     -0.68931629	      2.85944722	      9.23227486	     -8.61693618	     20.88227171	     68.46285746	      0.00000000	      0.00000000	      2.35138805	     12.54479490	    -44.80154855	    -63.16377894	    -18.65724501	   -194.81630726	    149.81223302	     17.52044521	     17.73761004	      7.79872803	     52.26768797	     31.36152671	    207.66296862	      0.04636052	      1.22003190	    -69.87410870	    -24.62890790
      3.69491525	      3.61387646	     12.79977349	     95.51697461	      0.11579856	      0.93524283	      0.74405286	    -11.44797742	      2.07901942	    -20.02955604	     16.08580110	      0.28075019	     25.39398994	     16.25602298	      0.00000000	    -10.32443989	     -4.45180833	      5.17457393	     18.23442452	      0.31825075	     21.41955975	    -13.19793390	      0.00000000	     -1.19450693	      1.94364968	     12.16129463	     -2.21831882	      2.58505408	     12.92137555	     -1.96245544	      4.72578984	     12.92137555	     -1.36520197	      4.72578984	     10.64113280	     -1.10921914	      3.96349043	      9.88105189	     -0.68254126	      3.01071336	      9.12097097	     -8.53224357	     21.98695394	     67.63747235	      0.00000000	      0.00000000	      2.49802249	     13.57242144	    -44.82867124	    -64.97117543	    -17.55182815	   -196.04235898	    149.77945285	     15.56495967	     16.09555655	     10.46025630	     55.23560940	     33.61536923	    206.50373944	      0.04278614	      1.02122215	    -69.88353792	    -24.64358821
      3.71186441	      2.94161811	     14.04127630	     96.79874338	      0.11478901	      0.93516782	      0.74336892	    -12.78833563	      1.81629261	    -20.75215895	     16.49819119	      0.28794776	     25.79510782	     15.56333421	      0.00000000	    -11.45803562	     -4.18193010	      6.28068175	     18.52580493	      0.32333629	     21.34047353	    -13.27301167	      0.00000000	     -1.19129300	      2.04807805	     12.08331559	     -2.21235022	      2.72394380	     12.83852281	     -1.95717526	      4.97969696	     12.83852281	     -1.36152876	      4.97969696	     10.57290114	     -1.10623468	      4.17644075	      9.81769391	     -0.68070482	      3.17247289	      9.06248669	     -8.50928674	     23.16826846	     67.20377629	      0.00000000	      0.00000000	      2.08832123	     14.88710618	    -44.85191622	    -66.94462025	    -15.79897640	   -197.44737082	    149.73496961	     16.05738352	     14.40403654	     11.78167515	     60.10517223	     36.18994212	    203.14747574	      0.04032639	      0.84785580	    -69.89366378	    -24.65346089
      3.72881356	      2.15185985	     15.40567243	     98.03201016	      0.11396710	      0.93369186	      0.74103866	    -14.38720431	      1.50871729	    -21.47277848	     16.96559745	      0.29610554	     26.67411624	     14.98990805	      0.00000000	    -12.86711605	     -3.85424549	      7.41130973	     18.85507278	      0.32908310	     21.64484194	    -13.40211549	      0.00000000	     -1.17650715	      2.14227721	     12.06855159	     -2.18489143	      2.84922869	     12.82283607	     -1.93288360	      5.20873280	     12.82283607	     -1.34463002	      5.20873280	     10.55998265	     -1.09250454	      4.36853168	      9.80569817	     -0.67225619	      3.31838740	      9.05141370	     -8.40367292	     24.23386824	     67.12166341	      0.00000000	      0.00000000	      1.06244882	     16.16633339	    -44.87015136	    -68.96832448	    -13.45527468	   -199.28576387	    149.67407910	     18.01646282	     12.97641622	     12.85300714	     66.55322484	     38.49313915	    197.94949122	      0.03883181	      0.71695708	    -69.90446653	    -24.65878872
